<svg xmlns="http://www.w3.org/2000/svg" viewBox="0 0 300.439 300.439"><path d="M276.967.0H192.47L70.415 178.385h84.498L276.967.0z" fill="#bf392c"/><path d="M23.472.0h84.498l122.053 178.385h-84.498L23.472.0z" fill="#e2574c"/><path d="M154.914 93.887c57.271.0 103.276 46.005 103.276 103.276s-46.005 103.276-103.276 103.276S51.638 254.434 51.638 197.163 97.643 93.887 154.914 93.887z" fill="#efc75e"/><path d="M154.914 122.053c-41.3.0-75.1 33.8-75.1 75.1s33.8 75.1 75.1 75.1 75.1-33.8 75.1-75.1-33.8-75.1-75.1-75.1zm0 131.442c-30.983.0-56.332-25.35-56.332-56.332s25.35-56.332 56.332-56.332 56.332 25.35 56.332 56.332-25.35 56.332-56.332 56.332z" fill="#d7b354"/></svg>